<?xml version="1.0" standalone="no"?>
<!DOCTYPE svg PUBLIC "-//W3C//DTD SVG 20010904//EN"
 "http://www.w3.org/TR/2001/REC-SVG-20010904/DTD/svg10.dtd">
<svg version="1.0" xmlns="http://www.w3.org/2000/svg"
 width="500.000000pt" height="500.000000pt" viewBox="0 0 500.000000 500.000000"
 preserveAspectRatio="xMidYMid meet">

<g transform="translate(0.000000,500.000000) scale(0.100000,-0.100000)"
fill="#000000" stroke="none">
<path d="M2572 4403 c-11 -10 -79 -112 -150 -228 -502 -818 -1203 -1825 -1726
-2480 -75 -93 -136 -174 -136 -178 0 -11 243 240 400 413 453 499 912 1104
1435 1892 94 141 174 255 180 254 5 -1 40 -151 77 -332 38 -181 109 -520 158
-753 50 -233 89 -426 87 -428 -6 -6 -237 -68 -474 -127 -256 -64 -619 -143
-857 -186 -270 -48 -269 -55 39 -210 127 -63 275 -142 330 -174 192 -114 752
-460 1031 -637 168 -107 292 -179 306 -179 31 0 58 29 58 61 0 13 -60 341
-134 729 -99 523 -131 708 -122 716 6 7 76 33 156 59 448 147 1290 458 1290
477 0 4 -37 -6 -82 -23 -408 -152 -770 -276 -1146 -391 -171 -52 -236 -68
-241 -59 -4 7 -20 76 -35 154 -203 1072 -300 1569 -312 1590 -32 57 -92 74
-132 40z m342 -1910 c24 -84 259 -1233 253 -1239 -3 -4 -75 36 -159 88 -421
261 -1014 601 -1277 733 -83 41 -151 79 -151 83 0 5 84 28 188 51 269 61 653
160 907 235 121 35 223 65 227 65 4 1 9 -7 12 -16z"/>
</g>
</svg>
